<svg width="375" height="300" viewBox="0 0 375 300" fill="none" xmlns="http://www.w3.org/2000/svg">
<mask id="mask0_2010_1799" style="mask-type:luminance" maskUnits="userSpaceOnUse" x="-9" y="0" width="396" height="300">
<path d="M386.33 0H-8.99121V300H386.33V0Z" fill="white"/>
</mask>
<g mask="url(#mask0_2010_1799)">
<path d="M329.39 76.5568C261.147 77.2316 158.962 75.6913 90.7192 76.3661C91.9222 70.086 91.5877 64.9965 92.7128 59.1211C122.275 60.0784 294.703 59.593 331.337 59.593C330.267 65.179 329.861 69.1948 329.39 76.5568Z" fill="black" stroke="black" stroke-width="1.5" stroke-linecap="round" stroke-linejoin="round"/>
<path d="M90.7191 76.3667C168.804 76.3667 273.582 76.5573 329.39 76.5573C322.094 139.934 318.49 179.125 311.052 223.404C230.658 222.997 155.231 223.405 74.8354 223.404C78.4501 201.884 87.5787 103.643 90.7185 76.3673L90.7191 76.3667Z" fill="white" stroke="black" stroke-width="1.5" stroke-linecap="round" stroke-linejoin="round"/>
<path d="M101.917 97.1784C127.337 97.1784 162.652 96.5433 192.772 97.1784C189.909 122.819 187.499 142.795 185.309 167.653C154.907 167.653 124.62 167.974 94.2256 169.332C94.3969 167.388 99.3431 120.218 101.917 97.1784Z" fill="#C51011" stroke="black" stroke-width="1.5" stroke-linecap="round" stroke-linejoin="round"/>
<path d="M131.895 111.805C140.15 117.178 152.086 128.077 155.734 131.419C156.209 131.854 156.156 132.613 155.623 132.974C151.625 135.684 138.08 145.192 131.187 149.265C130.679 149.565 130.041 149.181 130.066 148.591C130.705 133.05 131.481 122.181 131.895 111.805L131.895 111.805Z" fill="white" stroke="black" stroke-width="1.5" stroke-linecap="round" stroke-linejoin="round"/>
<path d="M306.354 193.965C309.542 165.643 314.234 129.575 317.926 101.315C301.972 101.315 290.504 101.448 276.918 101.803C273.76 130.116 269.423 165.547 267.542 194.916C279.754 195.028 293.871 194.758 306.354 193.965V193.965Z" fill="white" stroke="black" stroke-width="1.5" stroke-linecap="round" stroke-linejoin="round"/>
<path d="M309.497 128.747C307.071 129.919 288.227 129.812 279.131 129.794C279.103 122.678 279.719 115.625 280.737 108.632C291.282 107.724 301.57 107.457 311.852 108.023C310.664 114.951 309.768 121.929 309.497 128.747Z" stroke="black" stroke-width="1.5" stroke-linecap="round" stroke-linejoin="round"/>
<path d="M280.736 108.631C290.898 114.797 299.695 121.418 309.485 128.159" stroke="black" stroke-width="1.5" stroke-linecap="round" stroke-linejoin="round"/>
<path d="M311.302 108.544C300.606 115.562 289.911 122.581 279.216 129.599" stroke="black" stroke-width="1.5" stroke-linecap="round" stroke-linejoin="round"/>
<path d="M306.518 156.565C304.092 157.737 285.248 157.63 276.152 157.612C276.124 150.496 276.74 143.443 277.758 136.45C288.303 135.542 298.591 135.275 308.873 135.841C307.685 142.769 306.789 149.747 306.518 156.565Z" stroke="black" stroke-width="1.5" stroke-linecap="round" stroke-linejoin="round"/>
<path d="M277.758 136.45C287.92 142.616 296.716 149.237 306.506 155.978" stroke="black" stroke-width="1.5" stroke-linecap="round" stroke-linejoin="round"/>
<path d="M308.323 136.362C297.627 143.38 286.932 150.399 276.237 157.417" stroke="black" stroke-width="1.5" stroke-linecap="round" stroke-linejoin="round"/>
<path d="M303.428 184.384C301.002 185.555 282.158 185.448 273.061 185.43C273.034 178.314 273.65 171.261 274.668 164.268C285.213 163.36 295.501 163.093 305.783 163.659C304.595 170.587 303.699 177.565 303.428 184.384Z" stroke="black" stroke-width="1.5" stroke-linecap="round" stroke-linejoin="round"/>
<path d="M274.668 164.268C284.83 170.434 293.626 177.055 303.416 183.796" stroke="black" stroke-width="1.5" stroke-linecap="round" stroke-linejoin="round"/>
<path d="M305.233 164.18C294.537 171.198 283.842 178.217 273.147 185.235" stroke="black" stroke-width="1.5" stroke-linecap="round" stroke-linejoin="round"/>
<path d="M240.498 102.513C241.014 103.177 241.53 103.84 242.046 104.503L240.498 102.513Z" fill="white"/>
<path d="M359.244 61.1908C358.709 64.7844 357.633 68.2832 355.921 71.5557C354.788 73.7271 353.442 75.7031 351.9 77.5154C348.892 81.0897 345.173 84.0037 341.051 86.3821C334.292 90.2903 326.451 92.7634 318.843 94.3552C310.246 96.1552 301.203 97.1932 292.739 95.0791C291.896 94.8651 291.053 94.6259 290.222 94.3493C285.981 92.9458 282.136 90.6932 278.763 87.8172C273.313 83.1727 269.103 76.9113 266.46 70.0014C264.704 65.4265 263.634 60.5616 263.344 55.6973C263.005 49.9078 263.615 44.0172 265.553 38.5674C268.643 29.8639 275.03 22.6207 282.626 17.5862C290.228 12.5517 312.443 3.33233 329.56 9.48089C338.604 12.7218 345.639 20.3552 351.013 28.4733C357.306 37.9821 360.887 50.0651 359.245 61.1908H359.244Z" fill="#C51011" stroke="black" stroke-width="1.5" stroke-linecap="round" stroke-linejoin="round"/>
<path d="M294.029 3.9821C294.312 4.04467 294.757 3.81835 294.978 4.0049C295.033 3.79145 295.335 3.73239 295.526 3.8435C295.716 3.95461 295.819 4.16806 295.91 4.36865C296.019 3.9435 296.688 3.66163 297.124 3.70373C298.277 3.81484 297.787 4.25344 298.199 4.40432C298.466 3.51368 299.984 3.95753 299.918 5.0318C299.878 4.95812 299.91 4.85461 299.985 4.81718C301.281 4.56806 301.332 5.26514 301.533 6.06689C301.983 5.71601 302.516 5.93473 302.681 6.34701C302.608 6.05812 302.961 5.80958 303.254 5.86046C303.548 5.91134 303.77 6.14584 303.969 6.36631C304.238 6.18034 304.621 6.25052 304.885 6.44408C305.148 6.63765 305.319 6.92888 305.483 7.21192C305.779 7.15987 306.1 7.27508 306.295 7.50432C306.491 7.73356 306.554 8.06806 306.456 8.35227C306.413 8.28385 306.501 8.19438 306.581 8.20373C306.661 8.21309 306.722 8.27917 306.772 8.34175C307.096 8.73883 307.373 9.17334 307.596 9.63357C308.247 9.98211 308.515 10.6517 308.333 11.2096C308.64 11.3429 308.786 11.7564 308.633 12.054C308.997 12.0517 309.249 12.4207 309.36 12.7675C309.471 13.1143 309.524 13.5037 309.781 13.7622C310.031 14.0137 310.46 14.1295 310.537 14.4751C310.61 14.7997 310.315 15.0809 310.043 15.2733C310.381 15.2997 310.63 15.595 310.812 15.8821C311.19 16.4798 311.458 17.147 311.599 17.8406C312.116 18.0236 312.429 18.3084 312.472 18.6482C312.516 18.988 312.285 19.3423 311.957 19.44C312.389 19.6663 312.775 20.0342 312.898 20.5073C313.022 20.9804 312.812 21.5523 312.36 21.7359C312.672 21.847 312.975 22.0476 313.102 22.354C313.229 22.6605 313.111 23.078 312.799 23.1915C312.978 23.2517 313.157 23.3125 313.336 23.3728C313.384 23.9587 313.32 24.5535 313.151 25.1166C313.465 25.4798 313.621 25.7207 313.594 25.954C313.567 26.1874 313.361 26.3868 313.127 26.4061C313.393 26.6113 313.517 26.9856 313.425 27.3096C313.333 27.6336 313.031 27.8868 312.696 27.9207C313.049 28.1488 313.086 28.7324 312.765 29.0037C312.891 29.4149 312.821 29.8809 312.582 30.2382C312.76 30.3844 312.789 30.5979 312.737 30.7219C312.51 31.2652 312.096 31.7277 311.582 32.0143C311.644 31.9669 311.705 32.0786 311.701 32.1564C311.667 32.7459 311.259 33.2558 310.778 33.5973C310.518 33.7815 310.229 33.9336 310.019 34.1733C309.689 34.5517 309.612 35.0815 309.548 35.5792C308.895 36.4611 308.713 37.7605 308.305 38.9733C307.023 42.7763 303.531 45.5178 299.739 46.8289C295.947 48.14 291.848 48.2172 287.837 48.1277C286.733 48.1032 285.601 48.0611 284.582 47.6353C283.563 47.209 282.668 46.3125 282.564 45.2131C282.185 45.0523 281.922 44.8997 281.785 44.6669C281.648 44.4342 281.642 44.1295 281.771 43.8921C281.569 44.0804 281.231 44.1002 281.009 43.9365C280.786 43.7728 280.705 43.4447 280.825 43.1956C280.647 43.333 280.351 43.2681 280.248 43.0692C280.144 42.8704 280.262 42.5909 280.477 42.5254C280.232 42.7768 279.767 42.6207 279.591 42.3166C279.415 42.0125 279.44 41.6371 279.471 41.2874C279.185 41.5435 278.467 41.3558 278.344 40.9184C278.222 40.4809 278.495 40.0336 278.803 39.7002C278.615 40.1926 277.867 40.3447 277.502 39.964C277.138 39.5833 277.322 38.8423 277.822 38.6757C277.437 38.9073 276.899 38.8412 276.581 38.5236C276.653 38.1874 276.891 37.8903 277.203 37.7464C276.866 38.1312 276.177 38.119 275.854 37.7225C275.532 37.326 275.658 36.6494 276.103 36.3967C275.608 36.4605 275.088 36.1546 274.902 35.6903C274.717 35.226 274.883 34.6464 275.286 34.3511C274.809 34.4096 274.31 34.123 274.12 33.6815C273.93 33.24 274.065 32.6804 274.436 32.3739C273.633 32.2944 273.331 31.0067 274.015 30.5786C273.283 30.3587 273.053 29.233 273.639 28.7435C272.811 28.6499 272.514 27.3195 273.222 26.8827C272.553 26.6517 272.413 25.5774 273.001 25.1827C272.798 25.0844 272.595 24.9862 272.392 24.888C273.355 24.0102 272.119 22.1236 273.023 21.1862C272.476 20.6979 272.574 19.6774 273.205 19.3032C272.76 19.0032 272.763 17.6786 272.96 17.1786C273.22 16.5154 273.624 16.4961 273.885 15.833C273.669 15.7195 273.558 14.4728 273.63 14.24C273.857 13.5119 274.819 13.7792 275.213 13.1266C275.542 12.5827 275.208 11.319 275.637 10.8494C276.065 10.3798 276.505 10.8131 277.019 10.4394C276.95 9.62889 277.858 8.68971 278.486 9.12538C278.095 7.48327 280.167 7.27683 280.3 8.04408C280.367 7.74642 280.096 6.8821 280.386 6.78502C280.675 6.68853 281.013 6.75403 281.246 6.95227C281.11 6.59262 281.246 6.14993 281.56 5.9283C281.873 5.70666 282.336 5.72596 282.63 5.97274C282.54 5.67157 282.679 5.31718 282.951 5.1587C283.223 5.00022 283.958 4.87332 284.248 5.25052C284.164 4.11543 286.23 4.31309 286.306 4.4704C286.284 4.17157 286.58 3.92654 286.878 3.89321C287.175 3.85987 287.467 3.97859 287.741 4.09672C287.882 3.69262 288.137 3.30432 288.525 3.12479C288.913 2.94526 289.265 3.39906 289.479 3.76923C289.604 3.38911 289.943 3.08795 290.335 3.00841C290.727 2.92888 291.336 3.4318 291.599 3.73239C291.851 3.38093 292.294 3.17683 292.724 3.21426C293.155 3.25169 293.557 3.52888 294.029 3.98093V3.9821Z" fill="#534F4F" stroke="#534F4F" stroke-width="1.5" stroke-linecap="round" stroke-linejoin="round"/>
<path d="M242.881 102.029C238.806 103.603 234.698 105.179 230.543 106.754C228.351 105.442 225.765 104.084 223.366 104.96C222.19 105.389 221.264 106.302 220.404 107.212C218.508 109.219 214.137 111.89 215.104 113.569C216.099 114.332 218.268 112.594 219.583 111.568C220.899 110.542 222.232 109.41 223.866 109.073C225.5 108.735 227.515 109.559 227.819 111.2C228.115 112.798 226.646 114.253 225.082 114.699C223.518 115.145 221.852 114.91 220.229 115.001C219.366 115.05 218.332 115.342 218.121 116.179C217.77 117.568 219.86 118.115 221.284 117.957C228.638 117.139 235.966 116.095 243.256 114.829C255.405 112.72 252.798 98.1979 242.881 102.029L242.881 102.029Z" fill="white" stroke="black" stroke-width="1.5" stroke-linecap="round" stroke-linejoin="round"/>
<path d="M213.435 114.856C219.293 110.79 225.15 107.083 231.008 103.017C231.537 103.952 232.066 104.888 232.595 105.824C226.687 109.914 220.956 114.004 215.047 118.094C214.424 117.287 213.775 116.004 213.435 114.855V114.856Z" fill="white" stroke="black" stroke-width="1.5" stroke-linecap="round" stroke-linejoin="round"/>
<path d="M213.38 114.949C212.769 116.038 212.144 117.119 211.506 118.192C212.674 118.269 213.846 118.264 215.013 118.179C214.295 117.125 213.578 116.07 213.38 114.949Z" stroke="black" stroke-width="1.5" stroke-linecap="round" stroke-linejoin="round"/>
<path d="M228.498 105.513C229.014 106.177 229.53 106.84 230.046 107.503" stroke="black" stroke-width="1.5" stroke-linecap="round" stroke-linejoin="round"/>
<path d="M278.486 21.5815C278.746 21.3692 278.586 20.9587 278.579 20.623C278.572 20.2873 279.13 19.9978 279.167 20.3318C278.745 20.2885 278.378 19.7984 278.588 19.4306C278.798 19.0627 279.54 19.3452 279.362 19.7294C279.002 19.5388 278.865 19.0212 279.083 18.6768C279.3 18.3323 279.827 18.2347 280.154 18.478C280.051 18.0627 279.947 17.6481 279.844 17.2329C280.073 17.2312 280.302 17.23 280.53 17.2282C280.741 16.8201 280.56 16.2557 280.15 16.0475C279.977 16.3844 280.66 16.6165 280.836 16.2815C281.012 15.9464 280.727 15.5306 280.38 15.3791C280.076 15.4452 280.088 15.9645 280.378 16.0768C280.667 16.1896 281.004 15.9364 281.061 15.6312C281.119 15.3259 280.961 15.0154 280.743 14.7937C281.268 14.7201 281.611 14.0563 281.367 13.5856C281.479 13.8312 281.947 13.6043 281.824 13.3645C282.012 13.6148 282.2 13.8645 282.389 14.1148C282.123 14.3177 282.082 14.7563 282.307 15.0043C282.531 15.2522 282.972 15.2557 283.2 15.0107C282.906 15.2165 282.824 15.6703 283.028 15.9657C283.232 16.261 283.685 16.3464 283.982 16.1452C283.809 16.4282 283.894 16.8388 284.164 17.0306C284.434 17.223 284.85 17.168 285.061 16.9125C284.999 17.3394 285.423 17.7633 285.85 17.7013C286.276 17.6394 286.562 17.1113 286.38 16.7201C286.064 17.1961 286.346 17.947 286.898 18.0955C287.45 18.2446 288.072 17.7382 288.038 17.1674C287.576 17.5493 287.763 18.437 288.34 18.6002C288.917 18.7633 289.541 18.1043 289.347 17.537C289.159 18.0417 289.585 18.6686 290.123 18.6797C290.661 18.6908 291.113 18.0815 290.945 17.5698C290.469 17.8136 290.445 18.6148 290.906 18.8867C291.367 19.1587 292.057 18.7499 292.039 18.2142C291.8 18.6306 291.998 19.2347 292.437 19.4288C292.876 19.623 293.455 19.3627 293.602 18.9049C293.619 19.2563 293.926 19.5698 294.277 19.5937C294.628 19.6177 294.975 19.3481 295.038 19.0025C294.78 19.0165 294.737 19.4312 294.936 19.5967C295.136 19.7622 295.424 19.7429 295.681 19.7142C295.938 19.6856 296.226 19.6651 296.427 19.8282C296.455 19.4885 296.482 19.1493 296.509 18.8095C296.477 19.0598 296.59 19.3236 296.657 19.5224C297.248 19.4306 297.432 18.6768 297.855 18.254C298.164 17.9458 298.608 17.8171 299.039 17.7475C299.369 17.6943 299.713 17.6692 300.033 17.7651C300.405 17.8768 300.71 18.1399 300.991 18.4072C301.328 18.7271 301.652 19.068 301.888 19.4674C302.409 20.3481 302.45 21.4844 302.03 22.4171C301.61 23.3499 300.395 25.3195 299.306 25.7358C301.127 29.3581 301.98 32.1394 304.208 35.4388C305.592 35.3043 307.443 34.4739 309.254 33.9616C311.223 35.4493 313.047 37.3031 313.799 39.6534C314.622 42.2271 314.044 45.0499 313.055 47.5645C312.512 48.9464 311.831 50.3013 310.811 51.3797C309.723 52.5294 308.302 53.3084 306.853 53.9464C302.652 55.7961 297.998 56.6054 293.419 56.2815C291.889 56.1733 290.334 55.9294 288.984 55.2043C287.327 54.3136 286.088 52.7253 285.492 50.9405C284.896 49.1557 284.919 47.1926 285.416 45.3779C285.572 44.806 285.783 44.2312 286.179 43.7885C286.628 43.2861 287.267 43.0043 287.885 42.7376C289.309 42.123 290.732 41.5084 292.138 40.7961C291.633 39.5932 291.081 38.4095 290.417 37.0674C287.485 38.2335 283.812 37.0867 282.064 34.4598C281.455 33.544 281.072 32.4984 280.731 31.4528C279.663 28.1768 278.95 24.7856 278.486 21.5785V21.5815Z" fill="white" stroke="black" stroke-width="1.5" stroke-linecap="round" stroke-linejoin="round"/>
<path d="M359.244 61.1909C358.709 64.7845 357.633 68.2833 355.921 71.5558C354.788 73.7272 353.442 75.7032 351.9 77.5155C343.454 71.688 335.337 64.0862 327.823 57.705C331.957 66.6728 336.853 77.2576 341.051 86.3827C334.292 90.2909 326.451 92.764 318.843 94.3558C310.246 96.1558 301.203 97.1938 292.739 95.0798C292.544 94.6015 292.336 94.0979 292.116 93.5693C289.417 87.1693 286.17 78.0822 283.463 71.6822C282.035 76.7354 280.348 82.3991 278.762 87.8178C278.083 90.14 277.422 92.4243 276.811 94.5892C276.1 97.0938 275.357 99.6675 273.74 101.713C271.538 104.507 268.052 105.898 264.735 107.169C254.836 110.958 244.943 114.746 235.522 118.245C234.188 113.557 232.86 108.869 231.526 104.18C240.689 100.65 249.858 97.126 259.455 93.0541C261.79 85.3705 264.125 77.6862 266.459 70.0026C267.623 66.164 268.788 62.3313 269.952 58.4991C270.694 56.0512 271.456 53.5593 272.897 51.4447C275.98 46.9266 281.53 44.9248 287.018 43.1441C288.025 46.5804 290.567 49.5254 293.815 51.0295C297.056 52.5272 300.951 52.5588 304.217 51.105C306.105 50.2617 307.804 48.9278 308.887 47.1593C311.215 43.3459 310.296 38.4558 308.887 34.0634C312.612 32.6477 316.633 31.219 320.491 32.226C322.832 32.8365 324.853 34.2962 326.797 35.7377C337.854 43.9126 348.672 52.402 359.245 61.1933L359.244 61.1909Z" fill="white" stroke="black" stroke-width="1.5" stroke-linecap="round" stroke-linejoin="round"/>
<path d="M301.953 51.8464C306.327 64.3423 311.59 78.1026 315.963 90.5985" stroke="black" stroke-width="1.5" stroke-linecap="round" stroke-linejoin="round"/>
<path d="M291.985 92.9529C308.239 93.1383 318.796 90.881 339.852 83.7751" stroke="black" stroke-width="1.5" stroke-linecap="round" stroke-linejoin="round"/>
<path d="M283.248 26.3204C283.239 27.8023 283.229 29.2848 283.22 30.7666C283.973 30.9339 284.764 30.9257 285.514 30.7444" stroke="black" stroke-width="1.5" stroke-linecap="round" stroke-linejoin="round"/>
<path d="M290.006 37.7024C291.478 37.3515 292.672 36.3082 293.8 35.2994" stroke="black" stroke-width="1.5" stroke-linecap="round" stroke-linejoin="round"/>
<path d="M309.195 58.1733C308.959 58.2832 308.76 58.4862 308.693 58.737C308.626 58.9879 308.708 59.2821 308.919 59.4335C309.128 59.5832 309.409 59.5733 309.664 59.5452C309.763 59.5347 309.866 59.5207 309.949 59.4657C310.024 59.416 310.075 59.337 310.123 59.2604C310.201 59.1347 310.278 59.0055 310.314 58.8622C310.351 58.7189 310.343 58.5569 310.258 58.4353C310.205 58.3575 310.124 58.3014 310.039 58.2581C309.855 58.1645 309.605 57.9821 309.195 58.1733Z" stroke="black" stroke-width="1.5" stroke-linecap="round" stroke-linejoin="round"/>
<path d="M316.923 80.0149C316.52 79.9582 316.096 80.2734 316.053 80.6787C316.011 81.0833 316.378 81.4874 316.784 81.4664C317.105 81.4494 317.384 81.1933 317.474 80.8857C317.564 80.5781 317.518 80.0997 316.923 80.0155L316.923 80.0149Z" stroke="black" stroke-width="1.5" stroke-linecap="round" stroke-linejoin="round"/>
<path d="M313.74 69.9873C313.337 69.9306 312.913 70.2458 312.871 70.6511C312.828 71.0563 313.195 71.4598 313.602 71.4388C313.922 71.4218 314.202 71.1657 314.292 70.8581C314.382 70.5505 314.336 70.0721 313.741 69.9879L313.74 69.9873Z" stroke="black" stroke-width="1.5" stroke-linecap="round" stroke-linejoin="round"/>
<path d="M198.33 119.785C199.279 117.772 201.356 116.34 203.574 116.168C207.272 115.88 210.796 118.815 214.423 118.038C215.671 117.771 216.785 117.082 217.992 116.67C219.015 116.32 220.106 116.173 221.184 116.237C221.88 116.279 222.775 116.297 223.041 115.653" stroke="black" stroke-width="1.5" stroke-linecap="round" stroke-linejoin="round"/>
<path d="M197.371 136.358C198.938 134.165 201.71 132.895 204.395 133.14C206.615 133.343 208.692 134.492 210.922 134.508C213.473 134.525 215.791 133.065 218.296 132.582C221.286 132.006 224.343 132.848 227.38 133.066C234.594 133.585 241.911 130.584 248.961 132.194C251.187 132.702 253.364 133.667 255.645 133.551C258.656 133.399 261.625 131.375 264.488 132.323" stroke="black" stroke-width="1.5" stroke-linecap="round" stroke-linejoin="round"/>
<path d="M198.269 155.743C200.16 154.253 202.263 152.688 204.671 152.729C206.914 152.768 208.882 154.203 211.067 154.707C213.413 155.248 215.856 154.691 218.198 154.135" stroke="black" stroke-width="1.5" stroke-linecap="round" stroke-linejoin="round"/>
<path d="M226.785 199.049C215.595 199.111 204.406 199.174 193.216 199.236C191.208 199.247 189.174 199.256 187.229 198.757C185.284 198.259 183.405 197.188 182.354 195.477C181.484 194.057 181.254 192.322 181.37 190.661C181.709 185.804 185.497 181.067 190.356 180.74C203.144 180.391 215.859 180.382 228.581 180.063C231.739 179.77 235.061 180.895 237.188 183.249C239.314 185.602 240.082 189.185 238.852 192.109C237.887 194.402 235.875 196.091 233.761 197.405C231.965 198.522 229.777 199.458 226.784 199.048L226.785 199.049Z" stroke="black" stroke-width="1.5" stroke-linecap="round" stroke-linejoin="round"/>
<path d="M190.933 192.669C192.57 191.491 193.651 189.69 195.186 188.382C196.721 187.074 199.157 186.36 200.692 187.668C201.556 188.404 201.893 189.579 202.575 190.487C203.771 192.08 206.123 192.679 207.936 191.851C209.498 191.137 210.705 189.504 212.422 189.463C213.328 189.442 214.169 189.886 215.029 190.173C218.74 191.412 222.935 189.729 226.673 190.885" stroke="black" stroke-width="1.5" stroke-linecap="round" stroke-linejoin="round"/>
<path d="M49.0554 54.4754C54.1812 51.1807 57.9835 45.8865 59.4677 39.9766C59.9215 42.5409 60.3864 45.1397 61.4975 47.4947C62.6092 49.8497 64.4648 51.9713 66.9262 52.821C63.2537 55.5362 60.7823 59.8193 60.2689 64.3579C59.1718 58.8935 54.3537 54.3853 49.0554 54.4754Z" stroke="white" stroke-width="1.5" stroke-linecap="round" stroke-linejoin="round"/>
<path d="M354.24 120.26C356.378 118.668 358.107 116.532 359.217 114.108C359.27 115.461 359.33 116.844 359.835 118.101C360.34 119.357 361.386 120.481 362.722 120.698C360.933 121.689 359.598 123.467 359.144 125.461C359.122 123.154 357.03 121.065 354.24 120.26Z" stroke="white" stroke-width="1.5" stroke-linecap="round" stroke-linejoin="round"/>
<path d="M202.93 254.108C206.131 252.625 208.867 250.155 210.669 247.122C210.559 250.17 212.754 253.149 215.697 253.948C212.801 255.561 210.838 258.734 210.688 262.046C210.78 258.266 207.618 254.692 202.93 254.108Z" stroke="white" stroke-width="1.5" stroke-linecap="round" stroke-linejoin="round"/>
<path d="M39.6227 237.439C35.7408 233.677 31.8712 229.915 27.9683 226.219C28.4496 221.729 28.0917 220.575 27.3625 216.614C27.2175 215.826 26.7643 214.87 25.9643 214.934C25.1034 215.002 24.866 216.116 24.6841 216.959C24.2988 218.745 24.1081 219.263 23.604 219.946C22.7721 220.402 20.7514 219.251 20.7514 217.497C20.7514 216.62 20.7514 209.31 18.7046 209.895C17.8274 210.145 18.5784 218.478 17.8274 218.082C17.2426 217.205 16.6578 206.678 14.3187 209.018C13.5498 209.107 16.0705 218.457 15.1958 218.636C14.5563 218.767 12.8567 209.31 11.1023 211.064C10.2964 211.87 13.1552 219.49 12.5643 219.513C11.9335 219.537 10.3383 214.219 9.64028 214.019C7.59349 213.434 9.05547 218.405 9.64027 220.713C10.0185 222.206 11.2719 224.879 12.5643 226.854C13.7601 228.681 19.373 231.789 19.8742 232.409C24.9192 238.652 25.6543 241.419 30.0636 247.088C31.8847 249.43 42.8438 240.561 39.6221 237.439L39.6227 237.439Z" fill="white" stroke="black" stroke-width="1.5" stroke-linecap="round" stroke-linejoin="round"/>
<path d="M143.519 278.774C144.519 238.354 147.082 197.972 151.199 157.75C115.971 160.698 74.5618 166.043 39.8501 170.294C37.5442 178.767 26.1717 249.28 20.3857 284.877C33.0436 285.891 45.0951 285.916 60.9822 284.921C91.0793 283.691 121.07 280.653 143.519 278.774Z" fill="#FFBABA" stroke="black" stroke-width="1.5" stroke-linecap="round" stroke-linejoin="round"/>
<path d="M113.303 174.03C112.734 172.893 112.12 171.779 111.462 170.691C110.997 169.922 110.499 169.153 109.81 168.575C108.903 167.816 107.735 167.447 106.582 167.183C104.535 166.714 102.399 166.518 100.331 166.884C98.1876 167.264 96.1952 168.232 94.2975 169.298C92.6233 170.239 90.9689 171.291 89.7315 172.759C88.6215 174.077 87.8958 175.674 87.3174 177.297C85.7087 181.811 85.1309 186.684 83.0765 191.012C81.9572 193.371 80.4209 195.517 79.3496 197.898C77.8215 201.294 77.2876 205.13 77.8309 208.814C81.2853 208.59 84.7396 208.367 88.194 208.143C90.1835 208.014 92.2016 207.88 94.0823 207.219C95.963 206.558 97.7215 205.292 98.5227 203.467C99.1355 202.071 99.1391 200.496 99.197 198.973C99.2952 196.403 99.5782 193.844 99.8607 191.288C100.092 189.201 100.336 187.065 101.261 185.179C103.705 180.197 110.183 178.227 113.303 174.031L113.303 174.03Z" fill="black" stroke="black" stroke-width="1.5" stroke-linecap="round" stroke-linejoin="round"/>
<path d="M30.3555 224.422C37.9304 231.739 45.8579 238.692 54.1006 245.247C56.5409 239.756 59.0263 234.285 61.5561 228.835C63.7087 224.197 65.9491 219.491 69.4456 215.76C77.962 206.673 91.6041 205.377 103.822 202.961C119.308 199.899 134.258 194.143 147.798 186.029C149.46 185.033 151.133 183.974 152.357 182.473C154.804 179.475 158.781 167.571 163.919 155.036C168.906 155.975 176.371 156.913 181.358 157.852C177.777 170.971 172.859 183.725 166.705 195.851C165.088 199.038 163.327 202.257 160.62 204.591C158.464 206.45 155.825 207.644 153.205 208.761C144.267 212.57 135.071 215.775 125.702 218.349C125.737 232.823 126.446 245.754 127.331 262.153C110.717 262.79 92.6 263.589 76.0632 265.311C77.0491 255.359 76.9211 245.513 77.6222 238.433C75.5006 243.109 64.0608 263.343 56.459 263.752C52.2029 263.981 48.0789 262.557 44.3701 260.457C34.0848 254.633 25.669 245.719 18.231 236.533C22.3976 232.089 25.8017 228.789 30.3538 224.422H30.3555Z" fill="#C51011" stroke="black" stroke-width="1.5" stroke-linecap="round" stroke-linejoin="round"/>
<path d="M95.4935 187.729C94.845 188.375 93.8397 188.64 92.9566 188.396C92.0736 188.153 91.3467 187.411 91.1216 186.522C90.9882 185.997 91.0221 185.441 91.1403 184.913C91.3789 183.844 92.011 182.815 92.9964 182.338C93.9818 181.861 95.3262 182.084 95.9075 183.106C97.0134 183.696 98.4356 183.344 99.4198 182.567C100.404 181.791 101.04 180.665 101.626 179.556C102.991 176.974 104.241 174.245 104.454 171.332C106.841 173.373 110.119 174.332 113.296 173.752C114.045 175.843 114.368 178.058 114.687 180.256C114.96 182.139 115.109 184.048 114.83 185.93C114.024 191.386 111.599 192.715 108.119 193.92C108.218 196.31 108.317 198.7 108.563 201.188C110.323 200.995 112.077 200.744 113.693 200.332C114.129 205.129 113.832 210.056 112.208 214.591C110.584 219.125 107.55 223.249 103.345 225.403C100.974 224.65 98.6689 223.517 96.9251 221.741C95.6444 220.437 94.7104 218.834 93.9104 217.191C92.0297 213.329 90.8163 209.771 90.8362 205.3C92.0479 205.068 94.2122 204.645 95.4116 204.181C95.4116 199.165 95.4935 194.206 95.4935 187.728V187.729Z" fill="white" stroke="black" stroke-width="1.5" stroke-linecap="round" stroke-linejoin="round"/>
<path d="M103.434 193.365C104.868 194.091 106.56 194.298 108.127 193.937" stroke="black" stroke-width="1.5" stroke-linecap="round" stroke-linejoin="round"/>
<path d="M109.078 179.047C109.986 180.37 110.757 181.787 111.373 183.268C110.787 183.654 110.173 184.001 109.54 184.305" stroke="black" stroke-width="1.5" stroke-linecap="round" stroke-linejoin="round"/>
<path d="M103.345 225.403C103.782 238.103 103.908 250.477 104.346 263.177" stroke="black" stroke-width="1.5" stroke-linecap="round" stroke-linejoin="round"/>
<path d="M107.672 291.841C109.143 293.733 110.614 295.625 112.085 297.516C112.455 297.992 112.961 298.522 113.551 298.395C113.95 294.655 113.983 290.877 113.65 287.13C110.971 287.97 108.46 289.343 107.672 291.841Z" fill="white" stroke="black" stroke-width="1.5" stroke-linecap="round" stroke-linejoin="round"/>
<path d="M76.0647 265.311C64.4624 266.113 58.7185 265.556 51.1407 269.36C49.6419 270.112 48.2179 271.063 47.1179 272.329C43.2167 276.818 44.6284 284.277 48.9255 288.388C53.2226 292.5 59.5097 293.828 65.4571 293.839C71.4045 293.85 75.3828 293.577 83.2577 292.742C87.1565 292.328 89.6705 295.082 89.6705 295.082C89.6705 295.082 112.095 293.492 124.223 292.06C136.555 290.605 171.537 282.633 149.867 266.073C145.202 262.507 133.19 261.748 127.332 262.153C117.075 262.862 96.1401 263.922 76.0647 265.311Z" fill="#534F4F" stroke="#534F4F" stroke-width="1.5" stroke-linecap="round" stroke-linejoin="round"/>
<path d="M92.4881 276.136C88.7957 275.887 87.308 275.799 83.608 275.847C83.608 283.171 82.7478 294.708 82.2829 300.404C82.2086 301.315 83.3911 301.727 83.9004 300.969C86.5121 297.078 90.9238 290.558 91.3156 290.328C91.6823 290.113 92.5612 290.341 92.5186 289.918C92.1139 285.903 92.4887 281.641 92.4887 276.135L92.4881 276.136Z" fill="white" stroke="black" stroke-width="1.5" stroke-linecap="round" stroke-linejoin="round"/>
<path d="M60.2866 273.589C71.3176 273.996 81.7492 273.574 92.786 273.384" stroke="white" stroke-width="1.5" stroke-linecap="round" stroke-linejoin="round"/>
<path d="M131.113 267.913C118.34 268.629 105.603 269.978 92.9636 271.953C91.9712 279.5 91.6917 287.141 92.1309 294.74" stroke="white" stroke-width="1.5" stroke-linecap="round" stroke-linejoin="round"/>
<path d="M166.209 155.466C166.574 152.966 165.946 148.684 165.502 145.28C165.432 144.745 165.547 143.997 166.086 143.974C166.358 143.963 166.587 144.168 166.774 144.365C167.802 145.453 168.611 146.747 169.137 148.149C169.05 144.409 170.016 139.518 170.584 135.82C170.912 134.256 172.228 134.68 172.531 135.114C172.834 135.549 172.72 136.219 172.75 136.748C172.898 139.452 172.005 142.326 172.327 144.887C175.08 144.947 179.947 145.565 180.375 147.356C180.802 149.145 178.141 155.377 177.853 157.194C176.223 157.194 168.599 155.936 166.209 155.466Z" fill="white" stroke="black" stroke-width="1.5" stroke-linecap="round" stroke-linejoin="round"/>
<path d="M172.566 143.58C172.273 145.009 172.067 146.708 171.773 148.138C171.708 148.458 171.642 148.787 171.69 149.11C171.739 149.433 171.928 149.756 172.233 149.872C172.677 150.04 173.159 149.723 173.464 149.359C174.472 148.151 174.701 145.392 175.417 143.992C174.882 145.412 174.522 146.899 174.348 148.407C174.279 149.004 174.271 149.694 174.711 150.104C174.812 150.198 174.944 150.275 175.083 150.261C175.178 150.252 175.264 150.202 175.344 150.149C176.174 149.598 176.657 148.658 176.999 147.723C177.34 146.787 177.581 145.804 178.088 144.947C177.73 146.199 177.373 147.451 177.015 148.704C176.657 149.956 177.105 150.664 178.18 150.474C179.011 150.327 180.047 148.506 180.375 147.357C180.5 146.921 180.74 146.316 179.707 145.484C178.377 144.413 173.536 142.73 172.567 143.58L172.566 143.58Z" fill="white" stroke="black" stroke-width="1.5" stroke-linecap="round" stroke-linejoin="round"/>
<path d="M39.0186 166.694C37.025 166.709 35.1034 168.235 34.7724 170.201C34.442 172.167 35.8724 174.304 37.8414 174.618C39.9221 174.949 42.0151 173.171 42.2508 171.077C42.4865 168.983 41.0379 166.892 39.0186 166.694V166.694Z" fill="black" stroke="black" stroke-width="1.5" stroke-linecap="round" stroke-linejoin="round"/>
<path d="M21.6561 280.248C19.6625 280.264 17.7409 281.789 17.4099 283.755C17.0795 285.721 18.5099 287.858 20.4789 288.172C22.5596 288.503 24.6526 286.725 24.8882 284.632C25.1239 282.537 23.6754 280.447 21.6561 280.249V280.248Z" fill="black" stroke="black" stroke-width="1.5" stroke-linecap="round" stroke-linejoin="round"/>
<path d="M151.441 154.729C149.447 154.744 147.526 156.27 147.195 158.236C146.864 160.202 148.295 162.339 150.264 162.653C152.344 162.984 154.437 161.206 154.673 159.112C154.909 157.018 153.46 154.927 151.441 154.729V154.729Z" fill="black" stroke="black" stroke-width="1.5" stroke-linecap="round" stroke-linejoin="round"/>
<path d="M351.267 217.568C351.104 224.969 350.078 232.515 347.768 239.443C346.113 244.428 343.791 249.091 340.657 253.162C340.575 253.269 340.487 253.382 340.393 253.49C335.075 260.249 327.995 264.673 320.186 267.284C311.602 270.16 302.137 270.84 293.176 270.028C286.92 269.462 280.747 268.058 274.844 265.673C271.308 264.244 268.18 262.577 265.405 260.746C246.563 248.304 244.254 228.066 244.87 219.897C244.914 219.306 244.977 218.777 245.046 218.318C246.053 211.747 247.784 205.26 250.238 199.155C253.435 191.213 257.865 183.913 263.56 177.884C273.636 167.224 287.851 160.912 301.791 162.511C316.567 164.197 334.036 169.584 343.47 184.096C349.675 193.649 351.531 205.857 351.267 217.569L351.267 217.568Z" fill="#FFBABA" stroke="black" stroke-width="1.5" stroke-linecap="round" stroke-linejoin="round"/>
<path d="M347.768 239.443C346.113 244.427 343.791 249.091 340.657 253.162C340.575 253.269 340.487 253.382 340.393 253.489C339.946 253.697 339.499 253.899 339.052 254.1C334.899 246.901 330.217 240.003 325.056 233.484C323.534 243.106 322.01 252.728 320.487 262.344C320.462 263.974 320.444 265.667 320.185 267.284C311.601 270.16 302.137 270.84 293.175 270.028C286.92 269.462 280.747 268.058 274.844 265.673C271.307 264.244 268.179 262.577 265.404 260.746C266.379 247.996 268.79 237.751 269.469 224.819C264.397 223.982 250.798 221.509 244.87 219.898C243.561 219.545 242.63 219.23 242.24 218.985C231.881 212.478 226.538 190.629 221.535 179.729C226.721 177.017 231.906 174.311 237.092 171.599C240.616 180.913 244.845 190.61 250.238 199.156C251.258 200.786 252.328 202.378 253.441 203.913C264.473 204.807 276.499 205.31 291.011 206.481C291.319 210.346 294.403 216.481 299.607 217.129C308.21 218.199 310.803 213.278 311.979 208.042C317.077 208.375 320.085 208.558 325.22 209.502C326.498 209.735 327.75 210.195 328.807 210.943C330.041 211.818 330.878 213.133 331.683 214.405C335.27 220.087 338.863 225.77 342.451 231.453C344.162 234.152 345.874 236.871 347.768 239.445V239.443Z" fill="black" stroke="black" stroke-width="1.5" stroke-linecap="round" stroke-linejoin="round"/>
<path d="M318.523 231.847C314.551 231.642 310.594 231.152 306.529 230.206C305.905 233.77 305.444 237.363 305.259 241.029C305.497 241.703 306.169 242.11 306.797 242.454C308.197 243.222 309.665 243.975 311.258 244.089C313.583 244.257 315.78 243.043 317.44 241.581C318.173 238.148 318.51 234.631 318.523 231.846V231.847Z" fill="#C51011" stroke="#C51011" stroke-width="1.5" stroke-linecap="round" stroke-linejoin="round"/>
<path d="M196.669 147.426C196.781 154.344 196.892 161.263 197.003 168.181C207.49 167.188 218.014 168.357 228.547 168.15C229.254 159.942 228.643 155.394 229.367 147C222.702 147.419 202.917 147.034 196.669 147.426Z" fill="#FFBABA" stroke="black" stroke-width="1.5" stroke-linecap="round" stroke-linejoin="round"/>
<path d="M234.991 172.522C234.343 170.243 233.665 167.903 232.215 166.03C231.587 165.219 230.831 164.519 230.079 163.823C228.792 162.633 227.412 161.393 225.693 161.049C225.436 160.997 225.158 160.969 224.92 161.078C224.447 161.297 224.358 161.972 224.583 162.443C224.807 162.913 225.244 163.24 225.629 163.592C226.819 164.677 227.833 166.458 229.036 168.004C226.378 168.287 223.722 168.08 221.064 168.363C221.451 170.254 223.265 176.162 224.459 177.974C228.992 175.984 230.3 174.874 234.991 172.522L234.991 172.522Z" fill="white" stroke="black" stroke-width="1.5" stroke-linecap="round" stroke-linejoin="round"/>
<path d="M292.714 183.427C293.031 179.909 293.367 176.319 294.786 173.085C295.131 172.297 295.549 171.523 296.162 170.92C297.052 170.045 298.298 169.598 299.54 169.481C300.783 169.365 302.034 169.555 303.255 169.809C306.837 170.554 310.277 171.849 313.683 173.181C314.767 173.605 315.865 174.042 316.789 174.75C318.806 176.294 319.881 178.809 319.803 181.349C319.725 183.887 318.776 186.32 317.644 188.593C315.206 193.485 311.368 196.484 307.314 200.15C305.382 197.54 304.811 193.189 302.4 189.239C300.558 186.223 297.937 183.568 292.714 183.428V183.427Z" fill="black" stroke="black" stroke-width="1.5" stroke-linecap="round" stroke-linejoin="round"/>
<path d="M229.175 168.181C228.612 168.574 228.166 169.134 227.909 169.772C227.764 170.132 227.679 170.513 227.603 170.894C227.48 171.516 227.383 172.171 227.569 172.777" stroke="black" stroke-width="1.5" stroke-linecap="round" stroke-linejoin="round"/>
<path d="M296.119 198.659C295.617 201.243 295.641 202.975 294.915 206.711C293.269 206.622 292.393 206.473 290.754 206.644C289.361 210.149 290.726 216.41 293.752 218.305C294.771 218.943 295.927 219.335 297.098 219.611C298.825 220.019 300.609 220.187 302.382 220.108C304.558 220.011 306.755 219.526 308.618 218.398C310.482 217.27 311.983 213.351 312.426 211.219C312.593 210.416 313.194 208.275 312.4 208.07C311.09 207.729 308.913 207.457 307.304 207.251C308.038 202.359 308.623 197.647 309.207 192.936C311.016 193.042 312.906 191.794 313.304 190.058C313.589 188.813 312.941 187.266 311.683 187.042C310.887 186.901 310.076 187.323 309.539 187.926C309.001 188.529 308.686 189.292 308.38 190.04C307.921 189.966 307.462 189.891 307.003 189.816C306.798 188.999 307.577 188.116 307.23 187.349C306.917 186.659 305.94 186.596 305.409 186.056C304.791 185.426 304.969 184.378 305.308 183.564C305.647 182.749 306.117 181.905 305.946 181.039C305.696 179.763 304.216 179.158 302.924 179.009C301.631 178.861 300.213 178.911 299.181 178.119C298.809 177.833 298.508 177.449 298.088 177.241C297.428 176.913 296.601 177.104 296.006 177.54C295.411 177.977 295.006 178.619 294.645 179.263C293.713 180.926 292.982 182.704 292.394 184.623C291.242 187.626 290.073 190.861 290.834 193.985C291.023 194.76 291.334 195.517 291.837 196.137C292.452 196.896 293.314 197.408 294.165 197.889C294.816 198.258 296.137 198.573 296.12 198.659L296.119 198.659Z" fill="white" stroke="black" stroke-width="1.5" stroke-linecap="round" stroke-linejoin="round"/>
<path d="M295.719 198.56C297.229 198.996 298.791 199.25 300.36 199.315" stroke="black" stroke-width="1.5" stroke-linecap="round" stroke-linejoin="round"/>
<path d="M295.881 185.67C295.23 186.619 294.58 187.569 293.929 188.518C293.896 188.567 293.861 188.622 293.87 188.68C293.879 188.736 293.924 188.777 293.969 188.811C294.52 189.23 294.941 189.278 295.961 189.666" stroke="black" stroke-width="1.5" stroke-linecap="round" stroke-linejoin="round"/>
<path d="M206.076 153.404C204.338 154.666 202.599 155.928 200.86 157.191C202.396 158.832 204.072 160.341 205.864 161.697" stroke="black" stroke-width="1.5" stroke-linecap="round" stroke-linejoin="round"/>
<path d="M214.105 151.059C212.713 155.008 211.501 159.021 210.472 163.08" stroke="black" stroke-width="1.5" stroke-linecap="round" stroke-linejoin="round"/>
<path d="M217.856 152.723C219.381 154.313 221.69 155.92 223.481 157.202C221.841 158.623 218.927 160.842 217.288 162.263" stroke="black" stroke-width="1.5" stroke-linecap="round" stroke-linejoin="round"/>
<path d="M107.866 121.851C109.266 113.078 109.613 102.702 111.153 93.0497C86.9648 93.5982 62.7923 92.9415 38.6765 94.8877C38.6338 104.044 37.7993 112.971 37.283 122.189C61.373 122.724 86.6379 122.332 107.866 121.851Z" fill="#FFBABA" stroke="black" stroke-width="1.5" stroke-linecap="round" stroke-linejoin="round"/>
<path d="M55.7842 101.787C52.7901 101.501 49.7275 103.469 48.7415 106.31C47.7556 109.152 48.9421 112.593 51.4696 114.223C52.6778 115.002 54.1117 115.38 55.545 115.499C57.2123 115.638 59.0006 115.402 60.3094 114.36C61.5556 113.368 62.1941 111.774 62.4047 110.195C62.7778 107.392 61.821 104.326 59.5778 102.603C58.5667 101.826 57.2129 101.341 55.7842 101.785V101.787Z" fill="white" stroke="black" stroke-width="1.5" stroke-linecap="round" stroke-linejoin="round"/>
<path d="M73.3806 102.743C82.7923 102.518 92.1987 102.048 101.586 101.332L73.3806 102.743Z" fill="#FFBABA"/>
<path d="M73.3806 102.743C82.7923 102.518 92.1987 102.048 101.586 101.332" stroke="black" stroke-width="1.5" stroke-linecap="round" stroke-linejoin="round"/>
<path d="M73.4988 109.247C78.5421 109.206 83.5836 108.963 88.6076 108.518L73.4988 109.247Z" fill="#FFBABA"/>
<path d="M73.4988 109.247C78.5421 109.206 83.5836 108.963 88.6076 108.518" stroke="black" stroke-width="1.5" stroke-linecap="round" stroke-linejoin="round"/>
</g>
</svg>
