<svg width="262" height="300" viewBox="0 0 262 300" fill="none" xmlns="http://www.w3.org/2000/svg">
<mask id="mask0_2010_5807" style="mask-type:luminance" maskUnits="userSpaceOnUse" x="0" y="0" width="262" height="300">
<path d="M261.742 0H0.80957V299.747H261.742V0Z" fill="white"/>
</mask>
<g mask="url(#mask0_2010_5807)">
<path d="M79.227 298.207L1.22925 298.485C1.22925 298.485 6.21115 267.924 8.53167 253.947C33.4071 253.493 62.7942 254.448 84.7155 254.448C86.8479 255.897 79.2265 298.207 79.2265 298.207H79.227Z" fill="#C51011" stroke="black" stroke-width="1.5" stroke-linecap="round" stroke-linejoin="round"/>
<path d="M4.8103 275.796C7.83826 271.957 13.301 270.728 18.1206 271.55C20.0577 271.881 22.0138 272.498 23.9487 272.155C27.6651 271.497 29.8295 267.693 31.4621 264.291C33.0948 260.889 37.6871 254.632 42.4955 253.958" stroke="white" stroke-width="1.5" stroke-linecap="round" stroke-linejoin="round"/>
<path d="M19.8813 298.418C21.1737 295.948 23.0587 292.058 25.0563 290.113C27.9645 287.283 31.9687 285.959 35.7483 284.481C41.7601 282.129 47.6437 279.102 52.1918 274.521C57.5549 269.118 60.9741 261.25 63.9948 254.263" stroke="white" stroke-width="1.5" stroke-linecap="round" stroke-linejoin="round"/>
<path d="M51.4602 298.209C56.6072 285.172 70.4503 273.463 84.4568 272.944" stroke="white" stroke-width="1.5" stroke-linecap="round" stroke-linejoin="round"/>
<path d="M68.7739 298.209C70.2297 296.365 73.6428 289.29 81.4293 289.989" stroke="white" stroke-width="1.5" stroke-linecap="round" stroke-linejoin="round"/>
<path d="M156.82 298.979C134.588 298.992 103.109 298.377 76.7224 298.191C80.4791 277.506 84.5862 255.637 87.8683 235.727C112.498 235.727 140.057 235.628 166.005 235.612C164.764 255.548 161.788 278.682 156.82 298.979H156.82Z" fill="#C51011" stroke="black" stroke-width="1.5" stroke-linecap="round" stroke-linejoin="round"/>
<path d="M11.3262 194.327C11.3262 194.327 101.733 149.685 140.358 129.903C146.328 137.007 152.298 144.111 158.267 151.216C160.541 153.922 162.816 156.629 165.073 158.773C187.418 146.308 210.114 134.471 233.299 123.005C231.867 118.504 230.622 116.361 228.313 111.816C240.15 112.388 248.926 112.878 261.322 113.243C255.076 124.194 251.909 132.627 243.268 143.929C241.22 139.901 240.292 136.433 237.311 133.172C212.35 146.004 186.123 159.093 161.374 173.003C153.895 163.522 145.02 153.048 138.012 144.164C108.995 157.888 79.7766 172.37 51.482 187.528C40.2107 193.567 16.7357 205.098 16.4575 205.04C16.1111 204.967 11.3267 194.326 11.3267 194.326L11.3262 194.327Z" fill="#FFBABA" stroke="black" stroke-width="1.5" stroke-linecap="round" stroke-linejoin="round"/>
<path d="M228.848 299.321C235.214 261.127 241.705 218.235 248.881 180.185C223.277 180.185 198.8 180.145 179.322 180.145C170.031 215.978 161.336 259.977 155.236 299.001C177.077 299.001 205.582 299.379 228.848 299.321Z" fill="#C51011" stroke="black" stroke-width="1.5" stroke-linecap="round" stroke-linejoin="round"/>
<path d="M169.453 220.866C171.609 213.301 177.098 207.735 183.58 203.28C188.387 199.975 194.021 197.913 198.485 194.159C202.95 190.405 206.078 185.413 203.573 180.146" stroke="white" stroke-width="1.5" stroke-linecap="round" stroke-linejoin="round"/>
<path d="M222.851 180.174C224.88 185.259 223.273 189.861 221.17 194.915C219.066 199.97 216.082 204.651 214.363 209.849C211.648 218.061 212.359 227.379 216.441 235.005C220.522 242.629 227.952 248.421 236.383 250.352" stroke="white" stroke-width="1.5" stroke-linecap="round" stroke-linejoin="round"/>
<path d="M236.383 180.182C233.645 187.823 231.491 193.652 230.257 201.674C229.863 204.239 229.641 206.947 230.604 209.357C232.295 213.588 237.002 215.626 241.263 217.242" stroke="white" stroke-width="1.5" stroke-linecap="round" stroke-linejoin="round"/>
<path d="M164.238 246.714C169.726 242.981 174.572 238.306 178.501 232.957C181.73 228.56 184.506 223.552 189.15 220.69C189.754 220.318 190.412 219.979 191.121 219.953C191.933 219.924 192.702 220.309 193.38 220.757C196.921 223.098 198.892 227.327 199.323 231.551C199.754 235.774 198.819 240.02 197.57 244.077C195.038 252.301 191.2 263.441 188.666 271.665C186.132 279.889 185.661 291.057 188.548 299.163" stroke="white" stroke-width="1.5" stroke-linecap="round" stroke-linejoin="round"/>
<path d="M159.255 276.986C162.64 271.478 169.596 260.027 174.278 262.56C176.745 263.895 176.976 267.437 176.854 270.241C176.479 278.854 172.244 290.486 174.089 298.908" stroke="white" stroke-width="1.5" stroke-linecap="round" stroke-linejoin="round"/>
<path d="M99.1937 226.332L98.7812 235.613C110.349 234.655 121.667 235.818 133.272 235.613C133.288 234.073 132.601 232.279 130.407 231.416C128.228 230.559 125.74 229.932 123.477 229.329C122.198 228.988 120.803 228.566 120.087 227.453C119.501 226.542 119.44 225.257 118.551 224.638C118.028 224.275 117.349 224.247 116.712 224.238C110.782 224.154 104.845 224.511 99.1932 226.332L99.1937 226.332Z" fill="#534F4F" stroke="black" stroke-width="1.5" stroke-linecap="round" stroke-linejoin="round"/>
<path d="M33.3494 234.102C31.4755 237.396 29.7247 240.76 27.6746 244.099C32.455 249.011 39.2928 250.866 45.5811 253.998C49.86 253.998 53.8053 254.172 58.8852 254.172C57.9186 250.397 52.4212 249.048 49.7117 246.008C50.5042 243.446 50.0369 244.382 50.8294 241.82C50.9055 241.574 50.9822 241.313 50.9223 241.063C50.8484 240.754 50.5859 240.533 50.3324 240.342C47.8585 238.48 44.8859 237.427 41.9643 236.402C39.4344 235.513 36.904 234.625 33.3494 234.102V234.102Z" fill="#534F4F" stroke="black" stroke-width="1.5" stroke-linecap="round" stroke-linejoin="round"/>
<path d="M49.0821 118.541C66.4502 120.226 82.8142 121.844 100.271 121.873C99.9959 129.761 98.5894 137.61 95.9202 145.514C104.423 150.977 111.751 158.716 115.449 168.121C117.053 172.202 117.521 176.626 117.974 180.987C119.553 196.208 122.811 209.751 123.947 225.373C114.915 226.8 105.817 227.801 97.1845 227.364C96.4944 209.27 94.7308 192.057 92.3146 173.139C90.9293 172.745 88.9116 170.988 85.6844 169.26C78.1295 199.199 68.2245 221.059 59.1847 245.087C54.4222 242.896 42.5823 242.126 28.887 233.739C42.8969 205.511 54.9288 182.68 64.8814 154.333C58.7834 149.605 54.9293 145.829 50.8418 139.283C49.7274 137.5 44.9789 129.952 49.0816 118.542L49.0821 118.541Z" fill="white" stroke="black" stroke-width="1.5" stroke-linecap="round" stroke-linejoin="round"/>
<path d="M74.872 41.3753C74.8524 45.7079 74.2938 46.3936 74.6794 50.7089C73.1694 51.1656 71.7757 51.1924 70.3361 51.7717C70.1766 55.8156 70.2427 60.5927 71.4164 64.4658C72.5906 68.3389 75.111 71.9798 78.8083 73.6253C80.6302 74.4358 82.8891 74.6843 84.5285 73.5481C85.691 72.7421 86.338 71.3932 86.8658 70.0807C89.3179 63.9834 91.0451 56.5863 90.6477 50.0495C89.4975 50.0495 87.3875 50.1385 86.9895 50.3238C86.4153 46.9214 86.9721 46.1187 86.8076 42.0021C83.6167 41.6837 80.4511 41.1178 74.8714 41.3747L74.872 41.3753Z" fill="white" stroke="black" stroke-width="1.5" stroke-linecap="round" stroke-linejoin="round"/>
<path d="M87.4702 24.6168C87.2911 22.2711 85.9495 17.0715 84.6902 15.9728C83.2417 14.709 81.065 14.6082 79.2281 15.1763C77.3911 15.7444 75.7932 16.8778 74.1678 17.9038C72.2934 19.087 70.4805 19.3081 68.4672 20.236C66.7428 21.0308 64.8656 21.8178 63.8458 23.4196C63.3868 24.1411 63.14 24.9806 63.0124 25.8258C62.7874 27.3163 62.9217 28.8599 63.4003 30.2894C64.4323 33.3711 66.5105 35.6972 69.5217 37.893C70.8532 38.4812 72.098 39.2659 73.4676 40.4402C76.2023 45.1814 78.557 47.0799 83.7432 46.8443C95.9251 46.2907 93.82 36.4691 92.3307 33.5424C91.5258 31.9612 90.599 30.4416 89.4426 28.8062C88.2476 28.9008 86.9335 28.9629 85.9753 28.2426C85.1872 27.6504 84.8128 26.5853 84.979 25.6142C85.1452 24.6431 85.8157 23.789 87.4702 24.6174V24.6168Z" fill="#303030" stroke="black" stroke-width="1.5" stroke-linecap="round" stroke-linejoin="round"/>
<path d="M75.2384 39.8779C74.1962 38.4735 72.2383 35.3974 71.9743 32.8221C71.7729 30.8528 71.5983 29.1364 72.4609 27.3352C73.3235 25.5341 75.2268 24.0594 77.3127 24.1593C78.3207 24.2075 79.3368 24.6063 80.3128 24.3625C81.6634 24.025 82.4234 22.5896 83.7369 22.1398C84.8089 21.7734 86.0432 22.1653 86.9036 22.874C87.7639 23.5828 88.316 24.5615 88.8054 25.5368C90.0891 28.095 91.1594 30.7352 91.8096 33.5C91.8096 34 91.7543 34.637 91.8096 35C91.8096 35.5 91.8096 35.5 91.7728 36.5C91.7728 41.026 90.2353 41.4097 88.8054 42C86.4286 42.9815 83.7369 44.5 80.3128 42C79.3096 42 78.5827 41.9945 77.8096 42C77.0365 42.0055 75.8683 40.7285 75.237 39.8786L75.2384 39.8779Z" fill="white" stroke="black" stroke-width="1.5" stroke-linecap="round" stroke-linejoin="round"/>
<path d="M74.0022 40.9796C72.9813 41.387 71.8221 41.7895 70.8186 41.3417C70.2606 41.0926 69.8358 40.6046 69.5531 40.0628C69.0908 39.1757 68.9817 38.0904 69.3499 37.1607C69.7182 36.2311 70.5897 35.4945 71.8378 35.5006C72.4854 37.3667 73.1666 39.2215 74.0022 40.9796Z" fill="white" stroke="black" stroke-width="1.5" stroke-linecap="round" stroke-linejoin="round"/>
<path d="M65.0588 154.594C72.0652 160.694 79.7667 165.996 87.9663 170.364" stroke="black" stroke-width="1.5" stroke-linecap="round" stroke-linejoin="round"/>
<path d="M80.7561 133.052C86.0744 137.652 90.4708 141.07 95.9207 145.514" stroke="black" stroke-width="1.5" stroke-linecap="round" stroke-linejoin="round"/>
<path d="M54.6199 243.1C63.303 217.89 72.7446 192.941 82.9284 168.299" stroke="black" stroke-width="1.5" stroke-linecap="round" stroke-linejoin="round"/>
<path d="M71.661 52.4833C74.1707 55.6176 75.9808 59.2422 77.7718 62.8366C78.6617 64.6226 79.5517 66.4081 80.5507 68.1538C83.7438 62.5892 86.9308 57.0213 89.178 51.4081C91.0032 53.8601 91.7403 56.9385 92.291 59.9452C96.0002 80.1762 93.1989 100.967 89.516 121.772C79.7028 120.971 61.8349 119.821 59.5664 119.548C60.6254 98.2249 60.7692 78.2088 68.3845 58.2639C69.3808 55.6551 70.4968 53.0648 71.661 52.4833Z" fill="#222326" stroke="black" stroke-width="1.5" stroke-linecap="round" stroke-linejoin="round"/>
<path d="M54.0405 120.144C53.5855 125.514 53.187 131.201 55.6032 136.018C56.9168 138.638 58.9754 140.799 61.0664 142.851C70.5556 152.167 81.3668 160.134 92.9448 166.745C96.3528 168.691 98.6213 172.151 99.0534 176.052L104.756 227.54" stroke="black" stroke-width="1.5" stroke-linecap="round" stroke-linejoin="round"/>
<path d="M43.0977 89.292C44.3928 81.4018 45.7064 73.444 48.6057 65.9927C49.5264 63.6268 50.6419 61.266 52.4564 59.4912C54.1159 57.8681 56.2551 56.836 58.3944 55.9343C63.1149 53.944 68.0296 52.4496 72.4921 51.1293C73.4531 72.3806 71.8149 93.7528 67.5444 114.593C66.5475 119.456 65.2529 124.576 61.466 128.045C58.457 128.242 55.4419 127.895 52.4469 127.549C48.1965 127.057 43.9462 126.566 39.8279 126.063C42.7546 121.227 42.9561 120.756 46.2684 114.511C47.8512 111.527 48.3622 105.42 47.5714 102.136C46.3165 96.9218 42.2922 94.2 43.0977 89.292Z" fill="#C51011" stroke="black" stroke-width="1.5" stroke-linecap="round" stroke-linejoin="round"/>
<path d="M88.3384 50.1269C87.955 59.6133 87.5375 70.219 87.1546 79.7054C86.9486 84.8004 86.7427 89.8981 86.2703 94.9758C85.2645 105.79 83.0582 116.452 80.8479 127.599C88.4447 128.314 96.177 129.024 103.812 127.233C103.127 117.358 102.447 107.361 104.214 97.6215C105.009 93.239 106.292 88.9528 106.981 84.5524C107.428 81.6974 107.63 78.7718 108.62 76.0573C109.149 74.6077 109.899 73.2336 110.257 71.7325C110.745 69.6845 110.472 67.5414 110.198 65.4543C109.726 61.8733 108.494 59.1112 106.395 56.1722C104.391 53.3659 101.134 51.6252 97.7559 50.9328C94.3781 50.2405 91.4067 49.8756 88.3384 50.1269Z" fill="#C51011" stroke="black" stroke-width="1.5" stroke-linecap="round" stroke-linejoin="round"/>
<path d="M97.0881 85.4183C98.8411 85.9702 99.3639 85.8918 100.576 85.6915C101.031 85.6159 101.579 85.2577 101.882 85.6053C102.097 85.8515 102.087 86.2366 101.938 86.5271C101.789 86.8176 101.525 87.032 101.257 87.2189C100.889 87.4758 100.497 87.6997 100.089 87.8872" fill="white"/>
<path d="M97.0881 85.4183C98.8411 85.9702 99.3639 85.8918 100.576 85.6915C101.031 85.6159 101.579 85.2577 101.882 85.6053C102.097 85.8515 102.087 86.2366 101.938 86.5271C101.789 86.8176 101.525 87.032 101.257 87.2189C100.889 87.4758 100.497 87.6997 100.089 87.8872" stroke="black" stroke-width="1.5" stroke-linecap="round" stroke-linejoin="round"/>
<path d="M43.335 88.9014C46.6529 89.6726 49.4805 89.3334 52.8857 89.4185C54.7781 89.4661 56.7437 89.3676 58.429 88.5051C58.5325 90.2206 58.4855 91.9456 58.2963 93.7321C68.8893 90.8223 80.6072 87.0415 91.6372 84.9124C93.1478 84.6208 94.7559 84.3812 96.1881 84.9437C97.3607 85.4043 98.2691 86.3497 99.0728 87.3202C102.01 90.8665 104.161 96.7008 103.207 97.0881C102.366 97.6506 101.433 96.4668 100.811 95.2937C100.227 94.1917 97.9506 90.8989 97.3159 89.3687C97.7346 89.7314 99.4853 92.9721 99.6717 93.4931C99.8581 94.0142 99.6908 94.7071 99.1753 94.9098C98.6777 95.1051 97.8493 94.4945 97.4782 94.1094C97.0422 93.6566 95.3363 91.0075 95.1359 90.4114C95.3486 90.8435 97.0725 93.6543 97.2857 94.0859C97.4385 94.396 97.7352 94.7222 97.7234 95.0681C97.7116 95.414 97.593 96.0437 96.9482 96.079C96.6611 96.0946 96.3118 95.8847 96.1137 95.676C95.5031 95.0329 93.351 92.2439 92.9861 91.4357C93.3745 92.0273 95.3279 94.7183 95.5316 95.3956C95.6016 95.6284 95.8713 97.153 94.7038 96.8648C94.5477 96.8262 94.3937 96.7898 94.2577 96.7042C93.3527 96.1366 91.9529 94.7681 91.3943 94.0226C67.7413 105.149 61.0977 110.143 48.7971 108.249C47.7773 108.092 46.7357 107.849 45.9018 107.241C44.2389 106.028 42.2922 104.36 42.2922 101.131C42.2922 96.6499 42.6197 94.4709 43.3344 88.9008L43.335 88.9014Z" fill="white" stroke="black" stroke-width="1.5" stroke-linecap="round" stroke-linejoin="round"/>
<path d="M90.6482 92.4666L92.1415 94.8906" stroke="black" stroke-width="1.5" stroke-linecap="round" stroke-linejoin="round"/>
<path d="M61.2381 73.0713C60.0017 78.2261 59.0692 83.4532 58.4463 88.7177L61.2381 73.0713Z" fill="white"/>
<path d="M61.2381 73.0713C60.0017 78.2261 59.0692 83.4532 58.4463 88.7177" stroke="black" stroke-width="1.5" stroke-linecap="round" stroke-linejoin="round"/>
<path d="M67.8225 52.4318C66.3527 56.0385 64.6921 59.5674 62.8501 62.9995C64.1738 63.6521 65.5854 64.1245 67.035 64.3999C65.9872 65.765 64.7094 66.9532 63.2072 68.0458C67.2449 72.7691 69.6549 78.7041 71.6072 84.604" stroke="black" stroke-width="1.5" stroke-linecap="round" stroke-linejoin="round"/>
<path d="M99.0006 101.277C92.6133 101.313 86.2255 101.349 79.8381 101.384C79.518 102.016 79.3131 102.705 79.237 103.41C79.218 103.587 79.213 103.786 79.3294 103.921C79.4598 104.073 79.6865 104.083 79.8857 104.082C86.6895 104.046 93.4367 104.159 100.236 103.914C100.394 103.203 99.8906 101.566 99.0006 101.277Z" fill="white" stroke="black" stroke-width="1.5" stroke-linecap="round" stroke-linejoin="round"/>
<path d="M140.968 102.679C145.001 89.4011 147.231 84.2373 150.793 72.511C134.11 72.511 119.028 72.5171 105.174 72.5171C103.044 84.2412 101.046 91.5767 97.7312 104.034C115.616 103.073 121.542 103.724 140.968 102.679Z" fill="white" stroke="black" stroke-width="1.5" stroke-linecap="round" stroke-linejoin="round"/>
<path d="M120.667 84.825C120.246 85.3282 119.917 85.9109 119.781 86.5523C119.353 88.5577 120.546 90.7847 122.452 91.5409C124.357 92.2971 126.752 91.4928 127.816 89.7398C128.182 89.1364 128.398 88.4497 128.497 87.7512C128.582 87.1601 128.505 86.5651 128.37 85.9836C127.449 82.0069 122.5 82.6338 120.666 84.825H120.667Z" fill="white" stroke="black" stroke-width="1.5" stroke-linecap="round" stroke-linejoin="round"/>
<path d="M103.094 110.71C105.156 111.72 108.938 111.388 111.952 111.001C120.405 109.914 128.736 107.888 136.745 104.973C136.878 104.924 137.014 104.873 137.126 104.785C137.667 104.355 137.157 103.382 136.472 103.29C135.786 103.198 135.154 103.637 134.602 104.053C135.49 102.813 136.081 100.027 135.314 99.6951C134.259 99.4399 132.988 102.486 132.695 104.251C133.104 102.864 134.931 99.202 133.736 98.8382C132.165 98.2634 130.721 102.738 130.353 104.486C130.571 103.507 131.208 101.828 131.425 100.849C131.537 100.345 131.602 99.7091 131.176 99.4175C130.563 98.9972 129.706 100.199 129.375 100.865C128.835 101.95 128.435 103.316 127.895 104.401C128.257 103.323 128.339 102.664 128.701 101.586C128.895 101.008 128.521 100.283 127.924 100.156C127.522 100.071 127.133 100.41 126.945 100.776C126.293 102.045 126.517 101.822 126.051 103.261C117.713 103.261 110.082 103.815 102.907 103.815C102.68 103.815 102.933 110.632 103.094 110.711L103.094 110.71Z" fill="white" stroke="black" stroke-width="1.5" stroke-linecap="round" stroke-linejoin="round"/>
<path d="M90.257 50.3245C92.0738 53.0877 93.7702 55.9293 95.3402 58.8398C94.3859 59.8802 93.243 60.7478 91.9809 61.3937C93.1697 62.4963 94.5566 63.384 95.8081 64.0853C92.2909 70.3746 89.3357 76.978 86.99 83.7913" stroke="black" stroke-width="1.5" stroke-linecap="round" stroke-linejoin="round"/>
<path d="M125.886 103.274C124.998 103.413 124.079 103.564 123.333 104.064C122.514 104.611 122.004 105.512 121.625 106.42" fill="white"/>
<path d="M125.886 103.274C124.998 103.413 124.079 103.564 123.333 104.064C122.514 104.611 122.004 105.512 121.625 106.42" stroke="black" stroke-width="1.5" stroke-linecap="round" stroke-linejoin="round"/>
<path d="M84.8984 28.5789L87.9628 32.0339L85.9115 33.1298" fill="white"/>
<path d="M84.8984 28.5789L87.9628 32.0339L85.9115 33.1298" stroke="black" stroke-width="1.5" stroke-linecap="round" stroke-linejoin="round"/>
<path d="M182.643 18.7282C178.674 30.164 179.913 43.4004 188.345 52.8397C196.778 62.2797 212.93 66.6392 225.178 61.186C237.633 55.6399 242.87 41.9922 241.266 29.9261C239.896 19.6164 234.06 9.48805 224.202 3.60836C214.345 -2.27131 190.278 -3.27485 182.642 18.7276L182.643 18.7282Z" fill="#FFBABA" stroke="black" stroke-width="1.5" stroke-linecap="round" stroke-linejoin="round"/>
<path d="M190.469 22.7905C187.608 31.0349 188.502 40.5778 194.581 47.3832C200.66 54.1887 212.306 57.3319 221.135 53.4006C230.115 49.4021 233.89 39.5631 232.734 30.8642C231.746 23.4314 227.539 16.1295 220.432 11.8903C213.325 7.65116 195.975 6.92802 190.469 22.7905Z" fill="white" stroke="black" stroke-width="1.5" stroke-linecap="round" stroke-linejoin="round"/>
<path d="M198.113 26.3105C196.322 31.4737 196.881 37.4497 200.688 41.7118C204.495 45.9739 211.788 47.9424 217.318 45.4803C222.942 42.9762 225.306 36.8144 224.582 31.3663C223.964 26.7112 221.328 22.1385 216.878 19.4838C212.427 16.8292 201.561 16.3764 198.113 26.3105Z" fill="#FFBABA" stroke="black" stroke-width="1.5" stroke-linecap="round" stroke-linejoin="round"/>
<path d="M205.826 29.8606C205.114 31.9141 205.336 34.2917 206.851 35.9865C208.365 37.6813 211.266 38.4649 213.465 37.4854C215.702 36.4897 216.643 34.0382 216.354 31.8716C216.108 30.0201 215.06 28.2011 213.29 27.1449C211.52 26.0887 207.198 25.9091 205.826 29.8606Z" fill="white" stroke="black" stroke-width="1.5" stroke-linecap="round" stroke-linejoin="round"/>
<path d="M235.949 15.8988C236.196 14.7296 236.631 12.9027 236.878 11.7335C236.918 11.5432 236.96 11.3468 237.074 11.1889C237.185 11.035 237.352 10.9337 237.515 10.8358C239.466 9.66767 241.416 8.50013 243.366 7.33203C243.091 8.6574 242.864 9.99285 242.685 11.335C243.87 11.5304 245.055 11.7257 246.24 11.921C244.444 13.641 240.301 16.4076 240.301 16.4076C240.301 16.4076 237.194 16.229 235.949 15.8988Z" fill="#C51011" stroke="black" stroke-width="1.5" stroke-linecap="round" stroke-linejoin="round"/>
<path d="M212.411 32.5432C221.523 26.0473 230.635 19.5514 239.747 13.0555" stroke="black" stroke-width="1.5" stroke-linecap="round" stroke-linejoin="round"/>
<path d="M212.251 31.6024C212.157 32.0782 212.068 32.5998 212.3 33.0263C212.5 33.3923 212.899 33.6073 213.301 33.7198" stroke="black" stroke-width="1.5" stroke-linecap="round" stroke-linejoin="round"/>
</g>
</svg>
