<svg width="243" height="310" viewBox="0 0 243 310" fill="none" xmlns="http://www.w3.org/2000/svg">
<mask id="mask0_2010_5978" style="mask-type:luminance" maskUnits="userSpaceOnUse" x="0" y="-4" width="243" height="314">
<path d="M241.857 -3V308.621H1V-3H241.857Z" fill="white" stroke="white"/>
</mask>
<g mask="url(#mask0_2010_5978)">
<path d="M206.5 219.595C211.513 218.888 215.777 214.527 216.373 209.5C215.948 213.829 218.632 218.283 222.658 219.929C220.596 220.046 218.771 221.466 217.715 223.24C216.658 225.014 216.264 227.103 216.07 229.159C215.96 224.063 211.408 219.468 206.5 219.595Z" stroke="white" stroke-width="1.5" stroke-linecap="round" stroke-linejoin="round"/>
<path d="M0.5 123.643C8.516 122.512 15.335 115.539 16.287 107.5C15.607 114.423 19.899 121.544 26.337 124.177C23.04 124.364 20.122 126.636 18.432 129.472C16.742 132.309 16.112 135.649 15.802 138.936C15.625 130.788 8.347 123.441 0.5 123.643Z" stroke="white" stroke-width="1.5" stroke-linecap="round" stroke-linejoin="round"/>
<path d="M185.384 263.579C185.384 237.216 185.483 211.16 183.121 177.605C182.996 175.823 182.758 167.08 173.125 169.406C142.686 176.755 108.55 182.924 99.1311 185.198C91.9991 186.92 95.7441 174.609 87.7771 176.812C80.3741 178.86 61.6111 183.99 54.3801 186.579C52.9941 187.075 49.3341 189.454 50.1001 194.298C52.1111 207.012 53.3601 216.942 57.4591 228.541C69.2801 248.705 107.25 260.399 185.384 263.579Z" fill="black" stroke="black" stroke-width="1.5" stroke-linecap="round" stroke-linejoin="round"/>
<path d="M176.061 230.434C177.897 196.004 184.027 151.951 187.838 117.683C158.511 113.051 130.621 110.861 102.696 110.25C97.778 145.818 90.766 182.062 90.575 219.471C116.725 224.335 148.026 228.999 176.061 230.434Z" fill="white" stroke="black" stroke-width="1.5" stroke-linecap="round" stroke-linejoin="round"/>
<path d="M114.201 150.232C131.513 152.805 148.874 155.042 166.273 156.94" stroke="black" stroke-width="1.5" stroke-linecap="round" stroke-linejoin="round"/>
<path d="M115.122 138.088C132.434 140.661 149.795 142.898 167.194 144.796" stroke="black" stroke-width="1.5" stroke-linecap="round" stroke-linejoin="round"/>
<path d="M116.63 125.348C133.942 127.921 151.303 130.158 168.702 132.056" stroke="black" stroke-width="1.5" stroke-linecap="round" stroke-linejoin="round"/>
<path d="M114.221 160.762C131.741 162.835 149.26 164.909 166.78 166.982" stroke="black" stroke-width="1.5" stroke-linecap="round" stroke-linejoin="round"/>
<path d="M113.995 172.165C131.364 173.88 148.719 175.739 166.058 177.74" stroke="black" stroke-width="1.5" stroke-linecap="round" stroke-linejoin="round"/>
<path d="M113.259 182.78C130.731 185.838 148.299 188.352 165.928 190.316" stroke="black" stroke-width="1.5" stroke-linecap="round" stroke-linejoin="round"/>
<path d="M113.123 194.468C117.973 194.587 122.819 194.896 127.645 195.392" stroke="black" stroke-width="1.5" stroke-linecap="round" stroke-linejoin="round"/>
<path d="M132.849 210.605C133.844 207.261 135.45 203.876 138.377 201.978C141.304 200.079 145.81 200.312 147.716 203.235C148.818 204.925 148.854 207.07 148.854 209.088C150.221 208.835 151.202 207.681 152.21 206.724C153.218 205.767 154.626 204.901 155.927 205.391C156.885 205.752 157.442 206.728 158.213 207.401C159.66 208.665 161.748 208.785 163.669 208.843" stroke="black" stroke-width="1.5" stroke-linecap="round" stroke-linejoin="round"/>
<path d="M171.217 238.985C163.691 200.298 158.254 149.749 152.963 110.693C119.158 113.703 83.2799 116.673 54.2949 122.804C58.7199 163.608 63.2059 209.038 73.3829 250.57C103.729 248.701 139.732 245.179 171.217 238.985Z" fill="#FFBABA" stroke="black" stroke-width="1.5" stroke-linecap="round" stroke-linejoin="round"/>
<path d="M80.3521 167.236C95.3891 165.617 105.507 163.506 105.507 163.506" stroke="black" stroke-width="1.5" stroke-linecap="round" stroke-linejoin="round"/>
<path d="M78.001 153.514C97.911 151.559 103.846 150.608 103.846 150.608" stroke="black" stroke-width="1.5" stroke-linecap="round" stroke-linejoin="round"/>
<path d="M76.135 138.968C96.045 137.013 102.316 135.238 102.316 135.238" stroke="black" stroke-width="1.5" stroke-linecap="round" stroke-linejoin="round"/>
<path d="M83.2991 178.906C103.301 176.339 123.303 173.773 143.305 171.206" stroke="black" stroke-width="1.5" stroke-linecap="round" stroke-linejoin="round"/>
<path d="M86.2151 191.612C105.951 188.69 125.71 185.931 145.492 183.335" stroke="black" stroke-width="1.5" stroke-linecap="round" stroke-linejoin="round"/>
<path d="M88.3469 203.587C113.212 200.336 123.906 198.042 146.612 195.073" stroke="black" stroke-width="1.5" stroke-linecap="round" stroke-linejoin="round"/>
<path d="M91.4431 216.585C96.8541 215.37 102.313 214.367 107.802 213.577" stroke="black" stroke-width="1.5" stroke-linecap="round" stroke-linejoin="round"/>
<path d="M117.796 228.999C117.971 225.014 118.811 220.816 121.53 217.898C124.249 214.98 129.309 213.987 132.234 216.698C133.925 218.266 134.561 220.635 135.121 222.872C136.567 222.212 137.334 220.66 138.186 219.318C139.038 217.976 140.359 216.626 141.938 216.808C143.1 216.942 143.989 217.87 145.031 218.402C146.986 219.402 149.336 218.955 151.481 218.485" stroke="black" stroke-width="1.5" stroke-linecap="round" stroke-linejoin="round"/>
<path d="M47.0329 195.128C44.5889 195.759 43.0619 198.182 43.5609 200.656C49.1349 228.267 54.7099 252.05 60.2839 280.108C60.7239 282.321 61.2189 284.65 62.7229 286.333C65.6149 289.569 70.7289 289.043 74.9959 288.251C108.992 281.938 142.988 275.625 176.984 269.313C179.973 268.758 183.35 267.934 184.801 265.262C185.804 263.415 185.585 261.173 185.332 259.087C182.358 234.57 178.424 210.17 173.543 185.961C173.028 183.408 172.373 180.639 170.323 179.033C167.795 177.052 164.183 177.599 161.04 178.262C140.303 182.632 107.203 191.443 95.2019 194.68C92.6889 195.358 90.1029 193.883 89.4019 191.377L88.3059 187.459C87.5769 184.854 84.8289 183.382 82.2599 184.229C73.7479 187.034 55.8609 192.849 47.0309 195.13L47.0329 195.128Z" fill="#C51011" stroke="black" stroke-width="1.5" stroke-linecap="round" stroke-linejoin="round"/>
<path d="M142.555 162.422C141.381 151.063 139.723 139.755 137.585 128.537C128.609 129.911 118.86 131.505 109.174 133.416C112.323 144.716 114.109 156.007 115.341 167.314C124.721 165.95 134.069 164.359 142.555 162.422Z" fill="white" stroke="black" stroke-width="1.5" stroke-linecap="round" stroke-linejoin="round"/>
<path d="M136.793 129.024C130.676 142.229 123.313 154.807 115.769 167.252" stroke="black" stroke-width="1.5" stroke-linecap="round" stroke-linejoin="round"/>
<path d="M109.174 133.416C113.282 137.984 132.658 155.437 141.512 161.882" stroke="black" stroke-width="1.5" stroke-linecap="round" stroke-linejoin="round"/>
<path d="M65.851 214.765C60.356 213.911 54.681 215.529 49.718 218.051C41.103 222.428 34.273 230.765 32.985 240.335C32.422 244.517 32.901 248.797 34.086 252.834C35.735 258.436 38.799 263.594 42.863 267.785C37.883 275.032 31.764 284.199 19.586 301.406C19.195 301.958 19.289 302.724 19.801 303.167C22.064 305.124 24.041 306.432 26.49 308.139C27.08 308.55 27.898 308.404 28.314 307.818C37.082 295.442 43.962 285.697 51.708 274.535C52.052 274.716 52.396 274.896 52.744 275.07C63.066 280.193 69.68 276.42 72.699 275.059C80.676 271.434 88.792 264.743 91.27 255.566C94.377 244.036 94.015 219.116 65.85 214.767L65.851 214.765ZM82.051 252.155C80.388 258.304 74.962 262.781 69.615 265.209C67.593 266.125 63.165 268.647 56.255 265.218C50.283 262.255 45.647 256.727 43.76 250.337C42.966 247.626 42.649 244.76 43.025 241.966C43.881 235.55 48.457 229.966 54.233 227.036C57.546 225.348 61.35 224.27 65.029 224.833C83.888 227.745 84.134 244.439 82.052 252.156L82.051 252.155Z" fill="white" stroke="black" stroke-width="1.5" stroke-linecap="round" stroke-linejoin="round"/>
<path d="M220.574 111.9C228.743 106.343 224.114 97.0813 221.351 92.8286C214.06 98.1824 206.596 103.523 199.27 108.665C202.965 113.031 210.295 119.013 220.574 111.9L220.574 111.9Z" fill="#534F4F" stroke="black" stroke-width="1.5" stroke-linecap="round" stroke-linejoin="round"/>
<path d="M217.158 71.4969C218.98 60.1713 221.983 50.3917 215.336 41.0576C208.937 32.0707 195.957 24.2775 184.924 24.8819C173.892 25.4856 164.658 31.9483 156.99 39.9123C138.866 58.7335 150.374 96.0613 176.192 98.6468C183.817 99.4104 192.423 99.6817 198.337 107.51C198.645 107.919 198.999 108.365 199.394 108.83C206.717 103.692 214.179 98.3564 221.47 93.0101C221.285 92.7248 221.108 92.4617 220.945 92.2257C217.384 87.0802 216.302 76.8266 217.159 71.4971L217.158 71.4969Z" fill="white" stroke="black" stroke-width="1.5" stroke-linecap="round" stroke-linejoin="round"/>
<path d="M214.417 98.3119C208.885 89.3953 204.619 77.9582 202.487 67.6708C201.387 62.3617 201.082 56.7568 198.58 51.9539C197.093 49.0999 194.36 46.4311 191.134 46.7061C188.174 46.9584 185.842 49.8416 185.688 52.7988C185.534 55.7559 187.223 58.5864 189.572 60.3781C190.1 60.7807 190.752 61.1566 191.398 60.9882C192.629 60.667 192.598 58.9149 192.227 57.7068C191.529 55.4343 190.596 53.1768 188.999 51.4173C187.402 49.6583 185.04 48.4589 182.666 48.7375C178.824 49.1886 176.319 53.2664 175.962 57.1065C175.645 60.5132 176.88 64.3939 179.987 65.817C180.997 66.2798 182.466 66.2925 182.955 65.29C183.347 64.4866 182.858 63.5583 182.382 62.8081C180.657 60.0857 178.221 57.0069 175.003 57.4146C173.238 57.638 171.746 58.9548 170.909 60.524C168.651 64.7538 170.703 69.9907 173.554 73.8075C176.864 78.2381 181.547 80.0423 186.094 83.1999C193.809 88.5572 194.433 85.8337 206.8 103.704C209.043 102.06 210.857 100.777 214.419 98.3122L214.417 98.3119Z" stroke="black" stroke-width="1.5" stroke-linecap="round" stroke-linejoin="round"/>
<path d="M150.094 -3.00961C153.28 4.30398 155.573 11.8433 156.931 19.4674" stroke="white" stroke-width="1.5" stroke-linecap="round" stroke-linejoin="round"/>
<path d="M143.568 31.7581C137.574 28.0779 131.671 24.2512 125.863 20.2822" stroke="white" stroke-width="1.5" stroke-linecap="round" stroke-linejoin="round"/>
<path d="M133.565 50.1721C126.01 50.2381 118.451 50.0105 110.914 49.4896" stroke="white" stroke-width="1.5" stroke-linecap="round" stroke-linejoin="round"/>
</g>
</svg>
