<svg width="20" height="20" viewBox="0 0 20 20" fill="none" xmlns="http://www.w3.org/2000/svg">
<g clip-path="url(#clip0_2010_1711)">
<path fill-rule="evenodd" clip-rule="evenodd" d="M6 1.00001C6 0.447703 6.44772 0 7.00001 0H13.0001C13.5524 0 14.0001 0.447703 14.0001 1.00001C14.0001 1.55231 13.5524 2.00002 13.0001 2.00002H7.00001C6.44772 2.00002 6 1.55231 6 1.00001ZM3.99976 3C3.44748 3 2.99976 3.4477 2.99976 4.00001C2.99976 4.55231 3.44748 5.00002 3.99976 5.00002H15.9998C16.5521 5.00002 16.9998 4.55231 16.9998 4.00001C16.9998 3.4477 16.5521 3 15.9998 3H3.99976ZM1.99977 6C0.895193 6 -0.000244141 6.89544 -0.000244141 8.00002V18.0001C-0.000244141 19.1047 0.895193 20.0001 1.99977 20.0001H17.9999C19.1045 20.0001 19.9999 19.1047 19.9999 18.0001V8.00002C19.9999 6.89544 19.1045 6 17.9999 6H1.99977ZM1.99977 8.00002H17.9999V18.0001H1.99977V8.00002ZM9.55443 10.168C9.24753 9.9634 8.85303 9.94433 8.52783 10.1183C8.20272 10.2924 7.99972 10.6312 7.99972 11V15.0001C7.99972 15.3689 8.20272 15.7078 8.52783 15.8818C8.85303 16.0558 9.24753 16.0367 9.55443 15.8322L12.5545 13.8321C12.8327 13.6466 12.9998 13.3344 12.9998 13C12.9998 12.6656 12.8327 12.3534 12.5545 12.168L9.55443 10.168ZM10.1969 13L9.99974 13.1315V12.8685L10.1969 13ZM4.99976 10.0001C4.99976 10.5523 4.55203 11.0001 3.99975 11.0001C3.44747 11.0001 2.99974 10.5523 2.99974 10.0001C2.99974 9.44777 3.44747 9.00005 3.99975 9.00005C4.55203 9.00005 4.99976 9.44777 4.99976 10.0001Z" fill="white"/>
</g>
<defs>
<clipPath id="clip0_2010_1711">
<rect width="20" height="20" fill="white"/>
</clipPath>
</defs>
</svg>
