<svg width="120" height="71" viewBox="0 0 120 71" fill="none" xmlns="http://www.w3.org/2000/svg">
<path d="M89.998 17.7866C89.998 12.0858 91.2522 7.70428 93.7606 4.64211C96.269 1.54737 99.8524 0 104.511 0C106.954 0 109.088 0.423491 110.912 1.27047C112.736 2.11745 114.251 3.32277 115.456 4.88643C116.662 6.45009 117.558 8.32323 118.144 10.5058C118.73 12.6884 119.023 15.1154 119.023 17.7866C119.023 23.4875 117.753 27.8853 115.212 30.98C112.704 34.0422 109.137 35.5732 104.511 35.5732C102.035 35.5732 99.8849 35.1497 98.0607 34.3028C96.2364 33.4558 94.7216 32.2505 93.5163 30.6868C92.3435 29.1231 91.464 27.25 90.8776 25.0674C90.2912 22.8848 89.998 20.4579 89.998 17.7866ZM97.0345 17.7866C97.0345 19.5132 97.1811 21.1094 97.4743 22.5753C97.7675 24.0087 98.2073 25.2466 98.7936 26.289C99.4126 27.3315 100.194 28.1459 101.139 28.7322C102.084 29.3186 103.208 29.6118 104.511 29.6118C106.889 29.6118 108.729 28.6834 110.032 26.8265C111.335 24.9697 111.987 21.9564 111.987 17.7866C111.987 16.1252 111.84 14.5779 111.547 13.1445C111.287 11.7112 110.863 10.457 110.277 9.38195C109.69 8.30694 108.925 7.47625 107.98 6.88987C107.035 6.27093 105.879 5.96145 104.511 5.96145C102.133 5.96145 100.292 6.92245 98.9891 8.84445C97.686 10.7339 97.0345 13.7146 97.0345 17.7866Z" fill="#C51011"/>
<path d="M70.9226 17.0537H83.6762V32.2993C82.308 33.4395 80.6629 34.2702 78.7409 34.7914C76.8515 35.3126 74.9783 35.5732 73.1215 35.5732C70.9389 35.5732 68.9029 35.2312 67.0134 34.5471C65.1566 33.863 63.5441 32.8043 62.1759 31.3709C60.8077 29.905 59.7326 28.0481 58.9508 25.8004C58.169 23.5526 57.7781 20.8814 57.7781 17.7866C57.7781 14.5616 58.2341 11.8252 59.1463 9.57741C60.091 7.29708 61.3126 5.45652 62.8111 4.05574C64.3422 2.62239 66.0524 1.59624 67.9419 0.977288C69.8313 0.325762 71.7533 0 73.7079 0C75.6624 0 77.3727 0.146594 78.8386 0.43978C80.3371 0.732966 81.5261 1.04244 82.4057 1.3682L81.0375 6.9876C80.2231 6.66184 79.311 6.41752 78.3011 6.25464C77.2912 6.05918 76.0045 5.96145 74.4408 5.96145C73.04 5.96145 71.7533 6.1732 70.5805 6.59669C69.4078 7.02018 68.3816 7.72057 67.5021 8.69785C66.6551 9.64256 65.9873 10.8642 65.4986 12.3627C65.0426 13.8612 64.8145 15.6855 64.8145 17.8355C64.8145 19.8878 65.0426 21.6632 65.4986 23.1617C65.9547 24.6276 66.5899 25.8492 67.4044 26.8265C68.2188 27.7712 69.1635 28.4716 70.2385 28.9277C71.3461 29.3838 72.5188 29.6118 73.7567 29.6118C74.6037 29.6118 75.4344 29.5141 76.2488 29.3186C77.0632 29.0906 77.7473 28.7648 78.3011 28.3413V21.8912L70.9226 21.1094V17.0537Z" fill="#C51011"/>
<path d="M22.5996 17.7866C22.5996 12.0858 23.8538 7.70428 26.3622 4.64211C28.8705 1.54737 32.4539 0 37.1123 0C39.5555 0 41.6893 0.423491 43.5135 1.27047C45.3378 2.11745 46.8526 3.32277 48.0579 4.88643C49.2632 6.45009 50.1591 8.32323 50.7455 10.5058C51.3318 12.6884 51.625 15.1154 51.625 17.7866C51.625 23.4875 50.3546 27.8853 47.8136 30.98C45.3052 34.0422 41.7381 35.5732 37.1123 35.5732C34.6365 35.5732 32.4865 35.1497 30.6622 34.3028C28.838 33.4558 27.3232 32.2505 26.1178 30.6868C24.9451 29.1231 24.0655 27.25 23.4792 25.0674C22.8928 22.8848 22.5996 20.4579 22.5996 17.7866ZM29.6361 17.7866C29.6361 19.5132 29.7827 21.1094 30.0759 22.5753C30.369 24.0087 30.8088 25.2466 31.3952 26.289C32.0141 27.3315 32.796 28.1459 33.7407 28.7322C34.6854 29.3186 35.8093 29.6118 37.1123 29.6118C39.4904 29.6118 41.3309 28.6834 42.634 26.8265C43.937 24.9697 44.5886 21.9564 44.5886 17.7866C44.5886 16.1252 44.442 14.5779 44.1488 13.1445C43.8882 11.7112 43.4647 10.457 42.8783 9.38195C42.2919 8.30694 41.5264 7.47625 40.5817 6.88987C39.637 6.27093 38.4805 5.96145 37.1123 5.96145C34.7343 5.96145 32.8937 6.92245 31.5906 8.84445C30.2876 10.7339 29.6361 13.7146 29.6361 17.7866Z" fill="#C51011"/>
<path d="M22.3115 34.8892H0.664551V0.684174H7.35897V28.9278H22.3115V34.8892Z" fill="#C51011"/>
<path d="M89.998 53.2133C89.998 47.5124 91.2522 43.1309 93.7606 40.0688C96.269 36.974 99.8524 35.4267 104.511 35.4267C106.954 35.4267 109.088 35.8501 110.912 36.6971C112.736 37.5441 114.251 38.7494 115.456 40.3131C116.662 41.8767 117.558 43.7499 118.144 45.9325C118.73 48.1151 119.023 50.542 119.023 53.2133C119.023 58.9141 117.753 63.3119 115.212 66.4066C112.704 69.4688 109.137 70.9999 104.511 70.9999C102.035 70.9999 99.8849 70.5764 98.0607 69.7294C96.2364 68.8824 94.7216 67.6771 93.5163 66.1135C92.3435 64.5498 91.464 62.6767 90.8776 60.4941C90.2912 58.3115 89.998 55.8845 89.998 53.2133ZM97.0345 53.2133C97.0345 54.9398 97.1811 56.536 97.4743 58.002C97.7675 59.4353 98.2073 60.6732 98.7936 61.7157C99.4126 62.7581 100.194 63.5725 101.139 64.1589C102.084 64.7453 103.208 65.0384 104.511 65.0384C106.889 65.0384 108.729 64.11 110.032 62.2532C111.335 60.3963 111.987 57.383 111.987 53.2133C111.987 51.5519 111.84 50.0045 111.547 48.5712C111.287 47.1378 110.863 45.8836 110.277 44.8086C109.69 43.7336 108.925 42.9029 107.98 42.3165C107.035 41.6976 105.879 41.3881 104.511 41.3881C102.133 41.3881 100.292 42.3491 98.9891 44.2711C97.686 46.1605 97.0345 49.1412 97.0345 53.2133Z" fill="white"/>
<path d="M70.9226 52.4803H83.6762V67.726C82.308 68.8661 80.6629 69.6968 78.7409 70.2181C76.8515 70.7393 74.9783 70.9999 73.1215 70.9999C70.9389 70.9999 68.9029 70.6578 67.0134 69.9737C65.1566 69.2896 63.5441 68.2309 62.1759 66.7976C60.8077 65.3316 59.7326 63.4748 58.9508 61.227C58.169 58.9793 57.7781 56.308 57.7781 53.2133C57.7781 49.9882 58.2341 47.2518 59.1463 45.0041C60.091 42.7237 61.3126 40.8832 62.8111 39.4824C64.3422 38.049 66.0524 37.0229 67.9419 36.4039C69.8313 35.7524 71.7533 35.4267 73.7079 35.4267C75.6624 35.4267 77.3727 35.5732 78.8386 35.8664C80.3371 36.1596 81.5261 36.4691 82.4057 36.7949L81.0375 42.4143C80.2231 42.0885 79.311 41.8442 78.3011 41.6813C77.2912 41.4858 76.0045 41.3881 74.4408 41.3881C73.04 41.3881 71.7533 41.5998 70.5805 42.0233C69.4078 42.4468 68.3816 43.1472 67.5021 44.1245C66.6551 45.0692 65.9873 46.2908 65.4986 47.7893C65.0426 49.2878 64.8145 51.1121 64.8145 53.2621C64.8145 55.3144 65.0426 57.0898 65.4986 58.5884C65.9547 60.0543 66.5899 61.2759 67.4044 62.2532C68.2188 63.1979 69.1635 63.8983 70.2385 64.3543C71.3461 64.8104 72.5188 65.0384 73.7567 65.0384C74.6037 65.0384 75.4344 64.9407 76.2488 64.7453C77.0632 64.5172 77.7473 64.1915 78.3011 63.768V57.3179L70.9226 56.536V52.4803Z" fill="white"/>
<path d="M22.5996 53.2133C22.5996 47.5124 23.8538 43.1309 26.3622 40.0688C28.8705 36.974 32.4539 35.4267 37.1123 35.4267C39.5555 35.4267 41.6893 35.8501 43.5135 36.6971C45.3378 37.5441 46.8526 38.7494 48.0579 40.3131C49.2632 41.8767 50.1591 43.7499 50.7455 45.9325C51.3318 48.1151 51.625 50.542 51.625 53.2133C51.625 58.9141 50.3546 63.3119 47.8136 66.4066C45.3052 69.4688 41.7381 70.9999 37.1123 70.9999C34.6365 70.9999 32.4865 70.5764 30.6622 69.7294C28.838 68.8824 27.3232 67.6771 26.1178 66.1135C24.9451 64.5498 24.0655 62.6767 23.4792 60.4941C22.8928 58.3115 22.5996 55.8845 22.5996 53.2133ZM29.6361 53.2133C29.6361 54.9398 29.7827 56.536 30.0759 58.002C30.369 59.4353 30.8088 60.6732 31.3952 61.7157C32.0141 62.7581 32.796 63.5725 33.7407 64.1589C34.6854 64.7453 35.8093 65.0384 37.1123 65.0384C39.4904 65.0384 41.3309 64.11 42.634 62.2532C43.937 60.3963 44.5886 57.383 44.5886 53.2133C44.5886 51.5519 44.442 50.0045 44.1488 48.5712C43.8882 47.1378 43.4647 45.8836 42.8783 44.8086C42.2919 43.7336 41.5264 42.9029 40.5817 42.3165C39.637 41.6976 38.4805 41.3881 37.1123 41.3881C34.7343 41.3881 32.8937 42.3491 31.5906 44.2711C30.2876 46.1605 29.6361 49.1412 29.6361 53.2133Z" fill="white"/>
<path d="M22.3115 70.3159H0.664551V36.1108H7.35897V64.3544H22.3115V70.3159Z" fill="white"/>
</svg>
